<?xml version="1.0" encoding="UTF-8"?>
<!DOCTYPE svg PUBLIC "-//W3C//DTD SVG 1.1//EN" "http://www.w3.org/Graphics/SVG/1.1/DTD/svg11.dtd">
<svg xmlns="http://www.w3.org/2000/svg" xmlns:xlink="http://www.w3.org/1999/xlink" version="1.1" width="408px" height="263px" viewBox="-0.5 -0.5 408 263"><defs/><g><ellipse cx="204" cy="84" rx="22.5" ry="22.5" fill="#9e9e9e" stroke="#000000" stroke-width="3" pointer-events="all"/><ellipse cx="294" cy="24" rx="22.5" ry="22.5" fill="#9e9e9e" stroke="#000000" stroke-width="3" pointer-events="all"/><ellipse cx="204" cy="174" rx="22.5" ry="22.5" fill="#9e9e9e" stroke="#000000" stroke-width="3" pointer-events="all"/><ellipse cx="384" cy="84" rx="22.5" ry="22.5" fill="#9e9e9e" stroke="#000000" stroke-width="3" pointer-events="all"/><ellipse cx="384" cy="174" rx="22.5" ry="22.5" fill="#ffff88" stroke="#050505" stroke-width="3" pointer-events="all"/><ellipse cx="294" cy="238.5" rx="22.5" ry="22.5" fill="#9e9e9e" stroke="#000000" stroke-width="3" pointer-events="all"/><path d="M 208.5 106.52 L 208.27 152.6 M 199.28 152.56 L 199.5 106.48 M 199.28 152.56" fill="none" stroke="#000000" stroke-width="6" stroke-linejoin="round" stroke-miterlimit="10" pointer-events="all"/><path d="M 368.76 190.07 L 314.36 229.15 M 309.1 221.84 L 363.51 182.77 M 309.1 221.84" fill="none" stroke="#000000" stroke-width="6" stroke-linejoin="round" stroke-miterlimit="10" pointer-events="all"/><path d="M 219.91 189.91 L 273.75 228.91" fill="none" stroke="#000000" stroke-width="6" stroke-miterlimit="10" pointer-events="stroke"/><path d="M 363.21 75.44 L 310.42 39.74 M 315.47 32.29 L 368.25 67.99 M 315.47 32.29" fill="none" stroke="#000000" stroke-width="6" stroke-linejoin="round" stroke-miterlimit="10" pointer-events="all"/><path d="M 384 151.5 L 384 106.5" fill="none" stroke="#000000" stroke-width="6" stroke-miterlimit="10" pointer-events="stroke"/><path d="M 219.91 68.09 L 274.07 33.76" fill="none" stroke="#000000" stroke-width="6" stroke-miterlimit="10" pointer-events="stroke"/><ellipse cx="114" cy="24" rx="22.5" ry="22.5" fill="#9e9e9e" stroke="#000000" stroke-width="3" pointer-events="all"/><ellipse cx="24" cy="84" rx="22.5" ry="22.5" fill="#cce5ff" stroke="#050505" stroke-width="3" pointer-events="all"/><path d="M 186.18 71.09 L 131.82 36.24" fill="none" stroke="#000000" stroke-width="6" stroke-miterlimit="10" pointer-events="stroke"/><path d="M 41.73 72.07 L 95.15 35.34" fill="none" stroke="#000000" stroke-width="6" stroke-miterlimit="10" pointer-events="stroke"/></g></svg>